<svg width="140" height="140" fill="none" xmlns="http://www.w3.org/2000/svg"><circle opacity=".1" cx="70" cy="70" r="70" fill="#5F2EEA"/><path d="M103.478 63.926c-1.233-7.503-5.01-11.157-7.81-12.876l-.42-.064S89.45 48.872 84.63 59.69c3.841 3.229 4.503 10.353 3.01 16.24-1.951 7.674-10.723 12.089-10.723 12.089l-2.555-2.64-7.663 18.901h21.456l-2.555-3.576s8.514-5.788 12.26-10.556c3.746-4.769 7.662-13.792 5.619-26.222zM55.12 82.74c-15.837-20.092 7.833-30.734 7.833-30.734l2.042 3.066L72.488 36H51.031l2.895 3.576c-3.916 1.617-9.45 7.066-9.45 7.066s-11.066 11.238-9.28 27.33c1.788 16.092 11.58 17.198 11.58 17.198l19.24-.51c-4.852-.341-10.895-7.92-10.895-7.92z" fill="#5F2EEA"/><path d="M73.338 49.623c-5.447.51-8.002 8.514-8.002 8.514-3.926 12.697-6.958 19.437-8.47 22.414l-.255.531c3.439 4.858 7.166 7.245 11.203 8.579 2.747.204 6.802-10.41 6.802-10.41 3.434-8.968 5.139-12.94 8.175-20.688.492-1.24 2.887-8.508 8.256-8.985-3.583-.115-13.308-.368-17.709.045z" fill="#5F2EEA"/></svg>