<svg width="140" height="140" fill="none" xmlns="http://www.w3.org/2000/svg"><circle opacity=".1" cx="70" cy="70" r="70" fill="#AA21EA"/><path fill-rule="evenodd" clip-rule="evenodd" d="M68.081 34.162c20.97 0 37.919 16.949 37.919 37.919C106 93.051 89.051 110 68.081 110c-20.97 0-37.919-16.949-37.919-37.919 0-20.97 16.949-37.919 37.919-37.919zm-7.182 30.45c2.298-2.585 6.033-3.447 9.767-2.585 5.458 1.436 8.618 7.181 7.182 12.352l4.883 2.873-2.872 4.883-4.596-2.872c-2.586 2.585-6.32 3.734-10.055 2.585-5.458-1.436-8.618-6.894-7.181-12.352l-16.949-9.767 2.873-4.884 16.948 9.767zm2.586 6.033c-.575 2.585.862 5.17 3.16 5.745 2.585.862 5.17-.575 5.745-3.16.862-2.585-.575-5.17-3.16-5.745-2.585-.575-5.17.862-5.745 3.16zM68.08 42.78c16.087 0 29.301 12.927 29.301 29.301 0 16.087-13.214 29.301-29.301 29.301v-5.17c13.214 0 24.13-10.917 24.13-24.131 0-13.501-10.916-24.13-24.13-24.13V42.78z" fill="#AA21EA"/></svg>