<svg width="140" height="140" fill="none" xmlns="http://www.w3.org/2000/svg"><circle opacity=".1" cx="70" cy="70" r="70" fill="#1265E1"/><path d="M103.311 82.274c1.729-1.806 3.689-3.843 3.689-6.546 0-2.703-1.96-4.74-3.689-6.546a10.434 10.434 0 01-2.409-3.113 11.049 11.049 0 01.09-4.125c.32-2.434.692-5.188-.833-7.289-1.537-2.127-4.291-2.626-6.713-3.062a10.782 10.782 0 01-3.907-1.166 10.375 10.375 0 01-2.267-3.305c-1.179-2.19-2.511-4.675-5.035-5.495-2.434-.794-4.919.397-7.11 1.447a11.006 11.006 0 01-3.97 1.384 11.006 11.006 0 01-3.972-1.384c-2.19-1.05-4.676-2.241-7.11-1.447-2.524.82-3.856 3.305-5.034 5.495a10.377 10.377 0 01-2.268 3.306 10.787 10.787 0 01-3.894 1.165c-2.434.436-5.188.935-6.726 3.062-1.524 2.1-1.153 4.855-.832 7.29.288 1.356.319 2.756.09 4.124A10.43 10.43 0 0139 69.182c-1.728 1.806-3.688 3.843-3.688 6.546 0 2.703 1.96 4.74 3.689 6.546a10.43 10.43 0 012.408 3.113c.23 1.369.2 2.768-.09 4.125-.32 2.434-.691 5.189.833 7.29 1.538 2.126 4.292 2.626 6.713 3.061 1.365.137 2.69.532 3.907 1.166.96.947 1.73 2.069 2.268 3.305 1.178 2.191 2.51 4.676 5.034 5.496 2.434.794 4.92-.397 7.11-1.448a10.996 10.996 0 013.971-1.383c1.4.201 2.749.671 3.971 1.383a13.32 13.32 0 005.458 1.704 5.297 5.297 0 001.652-.256c2.524-.82 3.856-3.305 5.035-5.496a10.373 10.373 0 012.267-3.305 10.776 10.776 0 013.895-1.166c2.434-.435 5.188-.935 6.725-3.061 1.525-2.101 1.153-4.856.833-7.29a11.049 11.049 0 01-.09-4.125 10.434 10.434 0 012.409-3.113zm-2.78-2.651a12.637 12.637 0 00-3.28 4.586 13.086 13.086 0 00-.064 5.816c.244 1.806.487 3.664-.14 4.522-.629.858-2.499 1.204-4.292 1.537-1.94.2-3.813.825-5.483 1.832a13.141 13.141 0 00-3.395 4.612c-.871 1.627-1.768 3.305-2.831 3.651-.96.32-2.639-.487-4.253-1.268a13.513 13.513 0 00-5.637-1.755c-1.985.162-3.91.762-5.636 1.755-1.614.781-3.293 1.575-4.253 1.268-1.064-.346-1.96-2.024-2.832-3.651a13.142 13.142 0 00-3.394-4.612 13.249 13.249 0 00-5.483-1.832c-1.794-.333-3.664-.666-4.292-1.537-.627-.871-.384-2.716-.14-4.522a13.086 13.086 0 00-.065-5.816 12.64 12.64 0 00-3.28-4.586c-1.293-1.346-2.625-2.742-2.625-3.895s1.332-2.549 2.626-3.894a12.64 12.64 0 003.28-4.586 13.08 13.08 0 00.063-5.816c-.243-1.806-.486-3.664.141-4.522.628-.859 2.498-1.204 4.292-1.538 1.94-.2 3.812-.825 5.483-1.831a13.14 13.14 0 003.394-4.612c.871-1.627 1.768-3.305 2.832-3.651.96-.32 2.639.486 4.253 1.268a13.53 13.53 0 005.636 1.755 13.53 13.53 0 005.637-1.755c1.614-.782 3.292-1.576 4.253-1.268 1.063.346 1.96 2.024 2.831 3.65a13.138 13.138 0 003.395 4.613 13.248 13.248 0 005.483 1.831c1.793.334 3.663.666 4.291 1.538.628.87.385 2.716.141 4.522a13.086 13.086 0 00.064 5.816 12.637 12.637 0 003.28 4.586c1.294 1.345 2.626 2.741 2.626 3.894s-1.332 2.55-2.626 3.895zM71.156 50.492a25.237 25.237 0 1025.237 25.236 25.27 25.27 0 00-25.237-25.236zm11.3 23.174L77.701 78.2l1.025 6.495a1.273 1.273 0 01-1.87 1.32l-5.79-3.127-5.855 2.985a1.282 1.282 0 01-1.845-1.37l1.192-6.47-4.65-4.65a1.281 1.281 0 01.743-2.165l6.52-.871 2.972-5.855a1.28 1.28 0 012.306.026l2.831 5.931 6.495 1.025a1.28 1.28 0 01.68 2.19z" fill="#1265E1"/></svg>